<svg xmlns="http://www.w3.org/2000/svg" width="1920" height="204.747" viewBox="0 0 1920 204.747">
  <g id="Group_655" data-name="Group 655" transform="translate(-0.5 -3387.753)">
    <path id="Intersection_57" data-name="Intersection 57" d="M2067.775,546.54c44.76-12.836,88.214-19.2,147.159,0Zm-1477.1,0V381.192c111.813,32.1,246.559,53.967,369.572,44.326,263-20.612,306.612,5.843,681.655,121.023Z" transform="translate(-590.172 3045.959)" fill="rgba(49,113,204,0.7)"/>
    <path id="Intersection_56" data-name="Intersection 56" d="M246.148,387.652v-84.9c148.981,26.289,380.445,36.765,569.736-6.612,291.042-66.691,342.614-48.254,810.037-7.36,207.631,18.165,307.79-16.061,384.966-50.288,53.121-23.558,95.367-47.118,154.261-53.591V387.652Z" transform="translate(-245.648 3202.848)" fill="#3171cc"/>
    <path id="Intersection_60" data-name="Intersection 60" d="M905.641,221.5V117.628c69.61,10.941,158.2,15.231,278.393,6,415.2-31.874,542.461-50.108,735.466-25.021V221.5Z" transform="translate(1 3371)" fill="rgba(49,113,204,0.7)"/>
  </g>
</svg>
