<svg xmlns="http://www.w3.org/2000/svg" width="1175.14" height="25" viewBox="0 0 1175.14 25">
  <g id="Group_584" data-name="Group 584" transform="translate(-68.5 -2068.5)">
    <g id="Group_582" data-name="Group 582" transform="translate(351.141 1830.986)">
      <path id="Path_293" data-name="Path 293" d="M109.859,240.014c17.732,0,17.732,20,35.465,20s17.733-20,35.466-20,17.734,20,35.468,20,17.73-20,35.461-20,17.732,20,35.463,20,17.734-20,35.467-20,17.734,20,35.468,20,17.734-20,35.469-20,17.734,20,35.468,20,17.737-20,35.473-20,17.737,20,35.473,20" fill="none" stroke="#3171cc" stroke-linecap="round" stroke-miterlimit="10" stroke-width="5"/>
    </g>
    <g id="Group_656" data-name="Group 656" transform="translate(851 2071)">
      <path id="Path_293-2" data-name="Path 293" d="M500,240.014c-17.732,0-17.732,20-35.465,20s-17.733-20-35.466-20-17.734,20-35.468,20-17.73-20-35.461-20-17.732,20-35.463,20-17.734-20-35.467-20-17.734,20-35.468,20-17.734-20-35.469-20-17.734,20-35.468,20-17.737-20-35.473-20-17.737,20-35.473,20" transform="translate(-109.859 -240.014)" fill="none" stroke="#3171cc" stroke-linecap="round" stroke-miterlimit="10" stroke-width="5"/>
    </g>
    <g id="Group_583" data-name="Group 583" transform="translate(71 2071)">
      <path id="Path_293-3" data-name="Path 293" d="M500,240.014c-17.732,0-17.732,20-35.465,20s-17.733-20-35.466-20-17.734,20-35.468,20-17.73-20-35.461-20-17.732,20-35.463,20-17.734-20-35.467-20-17.734,20-35.468,20-17.734-20-35.469-20-17.734,20-35.468,20-17.737-20-35.473-20-17.737,20-35.473,20" transform="translate(-109.859 -240.014)" fill="none" stroke="#3171cc" stroke-linecap="round" stroke-miterlimit="10" stroke-width="5"/>
    </g>
  </g>
</svg>
