<svg xmlns="http://www.w3.org/2000/svg" width="225" height="61.998" viewBox="0 0 225 61.998">
  <path id="Subtraction_1" data-name="Subtraction 1" d="M69.184,62H10A10.011,10.011,0,0,1,0,52V10A10.011,10.011,0,0,1,10,0H20.737a16.876,16.876,0,0,0-2.254,11.065l.009.069c1.119,8.66,7.679,14.478,16.322,14.478a20.594,20.594,0,0,0,2.55-.162c6.491-.812,11.468-4.6,12.988-9.893l.214-.027a32.879,32.879,0,0,1,.093,8.96,14.446,14.446,0,0,1-2.608,6.83,9.2,9.2,0,0,1-6.394,3.536,12.129,12.129,0,0,1-1.5.1,8.233,8.233,0,0,1-7.5-4.172l-.178-.263-10.62,1.329.112.307c2.327,6.877,9.236,11.322,17.6,11.323a25.319,25.319,0,0,0,3.139-.2,19.989,19.989,0,0,0,13.741-7.392C60.495,30.664,62.01,23.094,60.835,14l-.01-.071A33.713,33.713,0,0,0,56.178,0h59.991a15.248,15.248,0,0,0,.137,15.623l.146.245,8.678-5.008L125,10.568a7.917,7.917,0,0,1-.881-5.619A8.649,8.649,0,0,1,127.393,0h10.678a7.726,7.726,0,0,1,1.067,1.383l.037.06a8.718,8.718,0,0,1,1.305,5.179,39.361,39.361,0,0,1-2.009,9.366l-7.139,23.666,3.762,6.314,32.539-18.776-4.36-7.319-20.3,11.712-.219-.365L147.1,17.4C149.51,9.654,150.716,4.323,149.75,0H215a10.011,10.011,0,0,1,10,10V52a10.011,10.011,0,0,1-10,10H199.687l20.439-31.2.938-8.541-36.86-3.92-.926,8.437,26.216,2.787-.023.211L187.724,62H107.566a19.964,19.964,0,0,0,.518-2.367l.01-.071A16.394,16.394,0,0,0,105.3,47.215,17.067,17.067,0,0,0,93.9,40.63a18.517,18.517,0,0,0-2.767-.214,12.429,12.429,0,0,0-9.626,3.913L81.3,44.3l3.465-14,24.179,3.667,1.314-8.384-32.7-4.962L70.573,49.859l9.339,1.417A9.412,9.412,0,0,1,82.8,48.854a10.154,10.154,0,0,1,5.046-1.277,12.66,12.66,0,0,1,1.892.146,9.862,9.862,0,0,1,6.424,3.569,9.013,9.013,0,0,1,1.673,6.925l-.01.071A9.778,9.778,0,0,1,96.47,62H80.024a7.84,7.84,0,0,1-1.4-4.154l-.032-.256-9.906-1.5-.046.53A14.9,14.9,0,0,0,69.184,62ZM38.069,17.329A9.387,9.387,0,0,1,31.988,15.2a8.834,8.834,0,0,1-3.029-5.729L28.95,9.4A8.919,8.919,0,0,1,34.6,0h7.813a8.976,8.976,0,0,1,5.441,7.174l.005.035a8.456,8.456,0,0,1-1.683,6.4,9.92,9.92,0,0,1-6.726,3.634A11.2,11.2,0,0,1,38.069,17.329Z" transform="translate(-0.002)" fill="#525252"/>
</svg>
