<?xml version="1.0" encoding="utf-8"?>
<!-- Generator: Adobe Illustrator 24.1.0, SVG Export Plug-In . SVG Version: 6.00 Build 0)  -->
<svg version="1.1" id="圖層_1" xmlns="http://www.w3.org/2000/svg" xmlns:xlink="http://www.w3.org/1999/xlink" x="0px" y="0px"
	 viewBox="0 0 330 330" style="enable-background:new 0 0 330 330;" xml:space="preserve">
<g>
	<rect x="211.2" width="13.2" height="13.2"/>
	<path d="M316.8,0h-13.2h-13.2h-13.2H264h-13.2h-13.2v13.2v13.2v13.2v13.2V66v13.2v13.2h13.2H264h13.2h13.2h13.2h13.2H330V79.2V66
		V52.8V39.6V26.4V13.2V0H316.8z M316.8,26.4v13.2v13.2V66v13.2h-13.2h-13.2h-13.2H264h-13.2V66V52.8V39.6V26.4V13.2H264h13.2h13.2
		h13.2h13.2V26.4z"/>
	<polygon points="277.2,26.4 264,26.4 264,39.6 264,52.8 264,66 277.2,66 290.4,66 303.6,66 303.6,52.8 303.6,39.6 303.6,26.4 
		290.4,26.4 	"/>
	<polygon points="52.8,66 66,66 66,52.8 66,39.6 66,26.4 52.8,26.4 39.6,26.4 26.4,26.4 26.4,39.6 26.4,52.8 26.4,66 39.6,66 	"/>
	<rect x="105.6" y="52.8" width="13.2" height="13.2"/>
	<polygon points="224.4,66 224.4,52.8 224.4,39.6 211.2,39.6 198,39.6 198,52.8 198,66 211.2,66 	"/>
	<rect x="118.8" y="66" width="13.2" height="13.2"/>
	<path d="M26.4,92.4h13.2h13.2H66h13.2h13.2V79.2V66V52.8V39.6V26.4V13.2V0H79.2H66H52.8H39.6H26.4H13.2H0v13.2v13.2v13.2v13.2V66
		v13.2v13.2h13.2H26.4z M13.2,66V52.8V39.6V26.4V13.2h13.2h13.2h13.2H66h13.2v13.2v13.2v13.2V66v13.2H66H52.8H39.6H26.4H13.2V66z"/>
	<rect x="105.6" y="79.2" width="13.2" height="13.2"/>
	<polygon points="224.4,79.2 211.2,79.2 211.2,92.4 211.2,105.6 211.2,118.8 224.4,118.8 237.6,118.8 237.6,105.6 224.4,105.6 
		224.4,92.4 	"/>
	<polygon points="303.6,105.6 290.4,105.6 290.4,118.8 277.2,118.8 277.2,105.6 264,105.6 264,118.8 250.8,118.8 250.8,132 264,132 
		264,145.2 277.2,145.2 277.2,158.4 290.4,158.4 303.6,158.4 316.8,158.4 316.8,171.6 330,171.6 330,158.4 330,145.2 330,132 
		316.8,132 316.8,145.2 303.6,145.2 290.4,145.2 290.4,132 303.6,132 316.8,132 316.8,118.8 330,118.8 330,105.6 316.8,105.6 	"/>
	<polygon points="13.2,118.8 13.2,105.6 0,105.6 0,118.8 0,132 13.2,132 26.4,132 26.4,118.8 	"/>
	<rect x="79.2" y="132" width="13.2" height="13.2"/>
	<polygon points="184.8,145.2 198,145.2 211.2,145.2 211.2,158.4 224.4,158.4 224.4,171.6 237.6,171.6 250.8,171.6 250.8,158.4 
		250.8,145.2 237.6,145.2 237.6,132 224.4,132 211.2,132 198,132 184.8,132 171.6,132 171.6,145.2 	"/>
	<rect x="92.4" y="145.2" width="13.2" height="13.2"/>
	<polygon points="39.6,158.4 39.6,145.2 52.8,145.2 52.8,132 52.8,118.8 66,118.8 66,132 79.2,132 79.2,118.8 92.4,118.8 
		105.6,118.8 118.8,118.8 132,118.8 145.2,118.8 145.2,132 158.4,132 171.6,132 171.6,118.8 158.4,118.8 158.4,105.6 171.6,105.6 
		184.8,105.6 198,105.6 198,92.4 198,79.2 184.8,79.2 184.8,92.4 171.6,92.4 171.6,79.2 184.8,79.2 184.8,66 184.8,52.8 171.6,52.8 
		171.6,66 158.4,66 158.4,52.8 158.4,39.6 171.6,39.6 184.8,39.6 184.8,26.4 184.8,13.2 184.8,0 171.6,0 158.4,0 158.4,13.2 
		145.2,13.2 145.2,0 132,0 132,13.2 118.8,13.2 118.8,0 105.6,0 105.6,13.2 105.6,26.4 105.6,39.6 118.8,39.6 118.8,26.4 132,26.4 
		132,39.6 118.8,39.6 118.8,52.8 132,52.8 145.2,52.8 145.2,66 145.2,79.2 158.4,79.2 158.4,92.4 145.2,92.4 145.2,79.2 132,79.2 
		132,92.4 132,105.6 118.8,105.6 105.6,105.6 92.4,105.6 79.2,105.6 66,105.6 52.8,105.6 39.6,105.6 39.6,118.8 39.6,132 26.4,132 
		26.4,145.2 13.2,145.2 0,145.2 0,158.4 0,171.6 13.2,171.6 13.2,158.4 26.4,158.4 26.4,171.6 39.6,171.6 52.8,171.6 52.8,158.4 	
		"/>
	<polygon points="79.2,158.4 79.2,145.2 66,145.2 66,158.4 66,171.6 79.2,171.6 92.4,171.6 92.4,158.4 	"/>
	<polygon points="198,171.6 184.8,171.6 184.8,184.8 184.8,198 198,198 198,211.2 211.2,211.2 211.2,198 211.2,184.8 211.2,171.6 
		211.2,158.4 198,158.4 	"/>
	<rect x="52.8" y="171.6" width="13.2" height="13.2"/>
	<rect x="92.4" y="171.6" width="13.2" height="13.2"/>
	<path d="M303.6,184.8h-13.2h-13.2v-13.2H264v13.2V198h-13.2v13.2h-13.2h-13.2h-13.2v13.2v13.2v13.2V264H198v-13.2h-13.2V264h-13.2
		v-13.2h-13.2V264v13.2h13.2h13.2v13.2v13.2v13.2h-13.2V330h13.2H198v-13.2h13.2v-13.2v-13.2v-13.2h13.2v13.2v13.2v13.2h13.2v-13.2
		v-13.2h13.2v-13.2H264h13.2v13.2h13.2v-13.2V264h-13.2v-13.2h13.2v-13.2h-13.2v-13.2v-13.2V198h13.2v13.2v13.2h13.2v13.2h13.2
		v-13.2v-13.2h-13.2V198h13.2v13.2H330V198v-13.2h-13.2v-13.2h-13.2V184.8z M264,237.6v13.2V264h-13.2h-13.2h-13.2v-13.2v-13.2
		v-13.2h13.2h13.2H264V237.6z"/>
	<rect x="26.4" y="184.8" width="13.2" height="13.2"/>
	<polygon points="79.2,184.8 66,184.8 66,198 79.2,198 92.4,198 92.4,184.8 	"/>
	<rect x="224.4" y="184.8" width="13.2" height="13.2"/>
	<polygon points="105.6,198 92.4,198 92.4,211.2 79.2,211.2 66,211.2 66,224.4 79.2,224.4 92.4,224.4 105.6,224.4 105.6,211.2 	"/>
	<polygon points="132,198 145.2,198 145.2,211.2 158.4,211.2 158.4,198 171.6,198 171.6,184.8 158.4,184.8 145.2,184.8 132,184.8 
		132,171.6 145.2,171.6 158.4,171.6 171.6,171.6 184.8,171.6 184.8,158.4 171.6,158.4 171.6,145.2 158.4,145.2 158.4,158.4 
		145.2,158.4 132,158.4 132,145.2 145.2,145.2 145.2,132 132,132 118.8,132 105.6,132 105.6,145.2 118.8,145.2 118.8,158.4 
		118.8,171.6 118.8,184.8 105.6,184.8 105.6,198 118.8,198 118.8,211.2 118.8,224.4 132,224.4 132,211.2 	"/>
	<polygon points="26.4,211.2 26.4,198 13.2,198 13.2,211.2 13.2,224.4 26.4,224.4 	"/>
	<rect x="184.8" y="211.2" width="13.2" height="13.2"/>
	<polygon points="171.6,237.6 184.8,237.6 184.8,224.4 171.6,224.4 158.4,224.4 145.2,224.4 132,224.4 132,237.6 145.2,237.6 
		145.2,250.8 158.4,250.8 158.4,237.6 	"/>
	<path d="M66,237.6H52.8H39.6H26.4H13.2H0v13.2V264v13.2v13.2v13.2v13.2V330h13.2h13.2h13.2h13.2H66h13.2h13.2v-13.2v-13.2v-13.2
		v-13.2V264v-13.2v-13.2H79.2H66z M79.2,264v13.2v13.2v13.2v13.2H66H52.8H39.6H26.4H13.2v-13.2v-13.2v-13.2V264v-13.2h13.2h13.2
		h13.2H66h13.2V264z"/>
	<rect x="237.6" y="237.6" width="13.2" height="13.2"/>
	<path d="M118.8,250.8v-13.2v-13.2h-13.2v13.2v13.2V264v13.2v13.2h13.2v13.2v13.2h-13.2V330h13.2H132v-13.2h13.2v-13.2v-13.2v-13.2
		V264v-13.2H132H118.8z M132,277.2h-13.2V264H132V277.2z"/>
	<polygon points="303.6,250.8 303.6,264 303.6,277.2 303.6,290.4 290.4,290.4 290.4,303.6 290.4,316.8 303.6,316.8 316.8,316.8 
		316.8,330 330,330 330,316.8 330,303.6 330,290.4 330,277.2 330,264 330,250.8 330,237.6 316.8,237.6 316.8,250.8 	"/>
	<polygon points="39.6,264 26.4,264 26.4,277.2 26.4,290.4 26.4,303.6 39.6,303.6 52.8,303.6 66,303.6 66,290.4 66,277.2 66,264 
		52.8,264 	"/>
	<rect x="158.4" y="290.4" width="13.2" height="13.2"/>
	<polygon points="277.2,290.4 264,290.4 250.8,290.4 250.8,303.6 250.8,316.8 264,316.8 277.2,316.8 277.2,303.6 	"/>
	<rect x="211.2" y="316.8" width="13.2" height="13.2"/>
	<rect x="237.6" y="316.8" width="13.2" height="13.2"/>
	<rect x="277.2" y="316.8" width="13.2" height="13.2"/>
</g>
</svg>
